<?xml version="1.0" encoding="UTF-8"?>
<svg id="Layer_2" data-name="Layer 2" xmlns="http://www.w3.org/2000/svg" viewBox="0 0 338.34 338.32">
  <defs>
    <style>
      .cls-1 {
        fill: #fff;
      }

      .cls-2 {
        fill: #55a5fc;
      }

      .cls-3 {
        fill: #09f09a;
      }
    </style>
  </defs>
  <g id="_Слой_1" data-name="Слой 1">
    <g>
      <g>
        <polygon class="cls-2" points="50.63 0 50.63 23.57 314.76 23.57 314.76 314.75 235.71 314.75 235.71 338.32 338.34 338.32 338.34 0 50.63 0"/>
        <polygon class="cls-3" points="23.57 0 0 0 0 338.32 208.66 338.32 208.66 314.75 23.57 314.75 23.57 0"/>
      </g>
      <g>
        <path class="cls-1" d="M109.49,182.42h-20.63l-40.08,90.22h21.39l8.04-19.34h41.78l8.04,19.34h21.91l-40.46-90.22ZM84.8,237.46l14.3-34.4,14.31,34.4h-28.62Z"/>
        <path class="cls-1" d="M176.21,255.63l-.1-73.31h-21.01l.1,90.32h53.52v-17.01h-32.5Z"/>
        <path class="cls-1" d="M120.09,131.59s.09-.04.13-.06c5.83-2.54,10.34-6.23,13.52-11.1,3.18-4.85,4.77-10.67,4.77-17.45s-1.59-12.51-4.77-17.41c-3.18-4.89-7.69-8.65-13.52-11.26-5.85-2.62-12.81-3.94-20.88-3.94h-39.04v90.22h21v-25.25h18.05c.31,0,.61,0,.92-.01l17.51,25.27h22.42l-20.09-29ZM81.29,87.38h16.88c6.36,0,11.17,1.36,14.44,4.07,3.26,2.7,4.89,6.54,4.89,11.53s-1.63,8.84-4.89,11.59c-3.28,2.75-8.09,4.13-14.44,4.13h-16.88v-31.33Z"/>
        <path class="cls-1" d="M264.73,70.37l-27.85,64.43-27.44-64.43h-22.67l39.04,90.22h20.63l39.04-90.22h-20.76Z"/>
        <rect class="cls-1" x="155.11" y="70.38" width="21" height="90.21"/>
        <path class="cls-1" d="M286.65,234.55c-1.93-3.14-4.44-5.62-7.53-7.46-3.09-1.86-6.5-3.38-10.19-4.58-2.45-.81-4.94-1.52-7.45-2.14v-22.1c1.69.27,3.39.65,5.14,1.12,4.28,1.15,8.46,2.89,12.5,5.21l6.57-15.72c-4.13-2.57-8.95-4.55-14.5-5.93-3.21-.79-6.44-1.36-9.7-1.69v-11.39h-18.87v11.99c-3.5.64-6.64,1.57-9.45,2.84-5.62,2.54-9.8,5.93-12.56,10.19-2.75,4.24-4.13,8.95-4.13,14.1,0,4.72.92,8.67,2.77,11.79,1.86,3.15,4.34,5.67,7.48,7.6,3.14,1.94,6.58,3.49,10.31,4.64,1.86.58,3.72,1.12,5.58,1.62v22.02c-2.45-.43-4.89-1.04-7.32-1.84-5.32-1.76-9.87-4.02-13.66-6.77l-7.08,15.72c4.03,3.09,9.38,5.6,16.05,7.53,3.9,1.13,7.92,1.94,12.02,2.4v11.53h18.87v-11.72c4.2-.64,7.93-1.69,11.19-3.18,5.66-2.58,9.89-5.97,12.68-10.17,2.8-4.21,4.2-8.85,4.2-13.93,0-4.62-.98-8.51-2.91-11.66ZM259.2,186.16c.88,0,1.67.31,2.28.84.79.65,1.29,1.65,1.29,2.75s-.5,2.09-1.29,2.74c-.61.52-1.4.84-2.28.84-1.96,0-3.58-1.6-3.58-3.58s1.62-3.59,3.58-3.59ZM248.81,181.08c.55-1.22,1.79-2.07,3.24-2.07,1.36,0,2.55.77,3.15,1.89.27.51.43,1.08.43,1.69,0,1.99-1.6,3.58-3.58,3.58s-3.58-1.59-3.58-3.58c0-.54.11-1.04.34-1.5ZM255.62,196.9c0,.26-.03.51-.09.77-.34,1.6-1.77,2.81-3.49,2.81-1.6,0-2.95-1.05-3.4-2.5h-.01c-.1-.34-.16-.71-.16-1.08,0-1.99,1.59-3.58,3.58-3.58s3.58,1.59,3.58,3.58ZM242.61,186.99c.61-.53,1.4-.84,2.28-.84,1.97,0,3.58,1.62,3.58,3.59s-1.6,3.58-3.58,3.58c-.88,0-1.67-.31-2.28-.84-.79-.65-1.29-1.63-1.29-2.74s.5-2.1,1.29-2.75ZM239.93,213.61c-1.89-1.46-2.84-3.39-2.84-5.79,0-1.9.58-3.62,1.75-5.16.88-1.16,2.13-2.16,3.77-2.95v15.56c-.99-.5-1.89-1.05-2.68-1.66ZM263.1,265.11c0,.94-.71,1.67-1.62,1.75-.04.01-.1.01-.14.01h-6.53v6.53c0,.26-.06.51-.16.74h-.01c-.26.61-.87,1.05-1.59,1.05h-2c-.69,0-1.31-.43-1.59-1.02-.13-.23-.18-.5-.18-.77v-6.53h-6.53s-.1,0-.14-.01c-.91-.07-1.62-.81-1.62-1.75v-2c0-.92.71-1.67,1.62-1.75.04-.01.1-.01.14-.01h6.53v-6.53c0-.99.81-1.77,1.77-1.77h2c.98,0,1.76.78,1.76,1.77v6.53h6.53s.1,0,.14.01c.91.07,1.62.82,1.62,1.75v2ZM267,252.72c-1.19,1.4-3.04,2.53-5.52,3.39v-16.53c1.76.71,3.25,1.52,4.48,2.44,1.89,1.42,2.84,3.33,2.84,5.73,0,1.9-.6,3.55-1.8,4.97Z"/>
      </g>
    </g>
  </g>
</svg>